<?xml version="1.0" encoding="iso-8859-1"?>
<!-- Generator: Adobe Illustrator 19.0.0, SVG Export Plug-In . SVG Version: 6.00 Build 0)  -->
<svg version="1.1" id="Capa_1" xmlns="http://www.w3.org/2000/svg" xmlns:xlink="http://www.w3.org/1999/xlink" x="0px" y="0px"
	 viewBox="0 0 512 512" style="enable-background:new 0 0 512 512;" xml:space="preserve">
<g>
	<path style="fill:#EEEDED;" d="M172.253,96.87c-24.21,6.487-49.186-7.932-55.672-32.142s7.932-49.185,32.142-55.672
		s49.186,7.932,55.672,32.142C210.883,65.409,196.463,90.384,172.253,96.87z M155.237,33.366
		c-10.806,2.896-17.242,14.043-14.347,24.848c2.895,10.806,14.043,17.241,24.847,14.346c10.806-2.895,17.242-14.043,14.346-24.847
		C177.19,36.907,166.042,30.471,155.237,33.366z"/>
	<circle style="fill:#EEEDED;" cx="265.052" cy="443.188" r="61.288"/>
	<circle style="fill:#EEEDED;" cx="265.052" cy="443.188" r="61.288"/>
</g>
<path style="opacity:0.1;enable-background:new    ;" d="M324.244,427.327c-8.965-33.458-43.952-52.995-77.352-42.673
	c-30.368,9.386-48.67,41.085-41.614,72.078c7.76,34.087,42.173,54.617,75.632,45.653c13.026-3.49,23.93-10.932,31.795-20.68
	c-6.035,4.49-12.992,7.949-20.699,10.014c-18.748,5.024-37.796,0.786-52.286-9.91c-5.963-4.401-4.174-13.759,2.985-15.677
	l83.624-22.407C326.372,438.313,325.713,432.809,324.244,427.327z"/>
<path style="fill:#EEEDED;" d="M434.347,325.439L434.347,325.439c-43.425-25.071-75.112-66.367-88.09-114.802l-7.085-26.442
	c-19.83-74.008-95.626-119.181-169.703-99.606c-74.241,19.617-118.359,95.8-98.5,169.913l7.475,27.896
	c12.978,48.435,6.184,100.04-18.887,143.466l0,0L434.347,325.439z"/>
<g style="opacity:0.1;">
	<circle cx="217.983" cy="272.193" r="7.02"/>
	<circle cx="354.959" cy="310.312" r="7.02"/>
	<circle cx="118.416" cy="373.69" r="7.02"/>
</g>
<path style="fill:#485458;" d="M470.109,388.242L59.987,498.134c-14.2,3.805-28.794-4.622-32.599-18.82l-4.319-16.118
	c-3.805-14.2,4.622-28.794,18.821-32.599l410.123-109.892c14.2-3.805,28.794,4.622,32.599,18.821l4.319,16.118
	C492.735,369.842,484.309,384.437,470.109,388.242z"/>
<path style="opacity:0.1;enable-background:new    ;" d="M67.798,468.485l-4.319-16.118c-3.805-14.2,4.622-28.794,18.821-32.599
	l-40.41,10.828c-14.2,3.805-22.625,18.399-18.821,32.599l4.319,16.118c3.805,14.2,18.399,22.625,32.599,18.82l40.41-10.828
	C86.197,491.111,71.602,482.684,67.798,468.485z"/>
<g style="opacity:0.1;">
	<g>
		<path d="M173.689,327.806c-1.272,0-2.562-0.324-3.743-1.006l-44.894-25.919c-3.587-2.071-4.816-6.658-2.745-10.245
			c2.071-3.588,6.658-4.817,10.245-2.745l44.894,25.919c3.587,2.071,4.816,6.658,2.745,10.245
			C178.802,326.46,176.281,327.806,173.689,327.806z"/>
		<path d="M138.283,337.292c-1.273,0-2.562-0.324-3.743-1.006c-3.587-2.071-4.816-6.658-2.745-10.245l25.919-44.894
			c2.071-3.587,6.658-4.818,10.245-2.745c3.587,2.071,4.816,6.658,2.745,10.245l-25.919,44.894
			C143.396,335.946,140.875,337.292,138.283,337.292z"/>
	</g>
	<g>
		<path d="M282.713,298.592c-1.272,0-2.562-0.324-3.743-1.006c-3.587-2.071-4.816-6.658-2.745-10.245l25.919-44.894
			c2.071-3.587,6.657-4.817,10.245-2.745c3.587,2.071,4.816,6.658,2.745,10.245l-25.919,44.894
			C287.825,297.246,285.304,298.592,282.713,298.592z"/>
		<path d="M318.119,289.106c-1.272,0-2.562-0.324-3.743-1.006l-44.894-25.919c-3.587-2.071-4.816-6.658-2.745-10.245
			c2.07-3.587,6.657-4.817,10.245-2.745l44.894,25.919c3.587,2.071,4.816,6.658,2.745,10.245
			C323.231,287.76,320.71,289.106,318.119,289.106z"/>
	</g>
</g>
<path style="opacity:0.1;enable-background:new    ;" d="M169.47,84.589c-27.847,7.359-51.455,22.675-69.04,42.855
	c18.715,9.063,49.026,10.386,81.009,1.816c31.543-8.452,56.877-24.423,68.77-41.367C225.061,79.003,197.146,77.275,169.47,84.589z"
	/>
<path style="opacity:0.1;enable-background:new    ;" d="M408.838,307.754l-305.684,81.908
	c13.781-36.697,15.916-77.039,5.638-115.396l-7.475-27.896c-18.437-68.809,18.278-139.394,83.044-164.845
	c-4.96,0.741-9.929,1.752-14.891,3.063c-74.241,19.617-118.359,95.8-98.5,169.913l7.475,27.896
	c12.978,48.435,6.184,100.04-18.887,143.466l374.79-100.424C425.312,320.222,416.794,314.293,408.838,307.754z"/>
<path style="fill:#485458;" d="M220.944,204.407c2.981,11.124-3.831,22.564-15.15,25.17c-10.782,2.482-21.531-4.394-24.394-15.081
	l-3.715-13.863c-0.795-2.968,0.966-6.019,3.934-6.814l28.67-7.682c2.968-0.795,6.019,0.966,6.814,3.934L220.944,204.407z"/>
<path d="M270.342,189.096c0.643,0,1.296-0.083,1.946-0.257c4.001-1.072,6.375-5.185,5.303-9.186l-3.129-11.677
	c-1.072-4.001-5.185-6.374-9.186-5.303c-4.001,1.072-6.375,5.185-5.303,9.186l3.129,11.677
	C264,186.886,267.03,189.096,270.342,189.096z M496.175,353.702l-4.319-16.117c-2.359-8.803-8.004-16.16-15.897-20.716
	c-7.893-4.557-17.087-5.766-25.889-3.409l-14.615,3.916c-40.615-24.35-69.669-62.825-81.956-108.68l-7.085-26.442
	c-13.063-48.753-49.057-85.384-93.084-101.174c-0.411-0.189-0.832-0.335-1.26-0.445c-13.551-4.721-27.843-7.468-42.45-7.998
	c4.243-10.512,5.027-22.146,2.016-33.381C204.08,11.052,174.986-5.747,146.781,1.81c-13.645,3.656-25.057,12.423-32.137,24.684
	s-8.965,26.529-5.309,40.173c2.995,11.178,9.443,20.822,18.304,27.798c-20.991,13.005-38.401,31.248-50.72,53.574
	c-2.001,3.626-0.683,8.188,2.943,10.19c3.627,1.999,8.189,0.683,10.19-2.944c3.685-6.679,7.883-12.946,12.533-18.772
	c10.528,4.002,23.204,6.025,37.034,6.025c13.787,0,28.712-2.003,43.76-6.035c29.62-7.937,55.012-22.529,69.352-39.621
	c37.516,14.997,67.895,47.08,79.196,89.252l7.085,26.442c6.715,25.06,18.127,48.204,33.922,68.786
	c12.255,15.971,26.689,29.781,43.036,41.233L74.05,414.213c8.43-18.09,14.026-37.269,16.654-57.227
	c3.387-25.722,1.699-51.471-5.016-76.531l-7.475-27.896c-5.183-19.339-5.913-39.038-2.171-58.546
	c0.78-4.068-1.885-7.998-5.953-8.778c-4.065-0.781-7.999,1.884-8.778,5.953c-4.172,21.752-3.36,43.707,2.413,65.254l7.475,27.895
	c12.288,45.856,6.363,93.703-16.636,135.098l-14.614,3.916c-18.171,4.869-28.993,23.613-24.124,41.785l4.319,16.118
	c4.08,15.226,17.899,25.29,32.962,25.29c2.914,0,5.876-0.377,8.823-1.166l139.021-37.251c5.639,14.574,15.982,26.704,29.707,34.629
	c10.6,6.12,22.36,9.245,34.28,9.245c5.974,0,11.99-0.786,17.914-2.373c34.187-9.161,55.46-42.682,50.177-76.891l59.988-16.074
	c4.001-1.072,6.376-5.185,5.304-9.185c-1.072-4.002-5.185-6.375-9.186-5.304l-66.83,17.907l0,0l0,0L58.046,490.89
	c-10.181,2.732-20.686-3.335-23.414-13.518l-4.319-16.118c-2.728-10.183,3.336-20.685,13.519-23.413l392.419-105.149
	c0.002-0.001,0.004-0.001,0.006-0.002l17.696-4.742c10.183-2.731,20.685,3.336,23.413,13.519l4.319,16.117
	c2.728,10.183-3.336,20.685-13.518,23.414l-35.762,9.583c-4.001,1.072-6.376,5.185-5.304,9.186c1.072,4.001,5.186,6.375,9.186,5.304
	l35.762-9.583C490.221,390.617,501.043,371.872,496.175,353.702z M123.825,62.786c-2.62-9.774-1.266-19.999,3.81-28.791
	c5.076-8.792,13.255-15.077,23.028-17.695c20.221-5.415,41.071,6.624,46.487,26.839c2.744,10.239,1.09,20.95-4.493,29.88
	c-5.136,0.422-10.289,1.131-15.442,2.124c8.758-6.623,13.125-18.129,10.113-29.372c-1.919-7.162-6.519-13.151-12.953-16.866
	c-6.434-3.714-13.921-4.702-21.081-2.784c-14.8,3.965-23.614,19.232-19.649,34.033c3.012,11.239,12.545,19.002,23.437,20.363
	c-4.965,1.707-9.802,3.665-14.5,5.861C133.322,81.432,126.561,72.998,123.825,62.786z M163.798,65.315
	c-6.813,1.829-13.838-2.231-15.663-9.042c-0.882-3.291-0.425-6.736,1.286-9.7c1.711-2.963,4.465-5.082,7.757-5.963
	c1.096-0.294,2.208-0.439,3.314-0.439c2.217,0,4.408,0.583,6.385,1.725c2.964,1.711,5.082,4.466,5.963,7.757
	C174.666,56.465,170.609,63.491,163.798,65.315L163.798,65.315z M179.499,122.015c-24.111,6.461-48.236,7.197-65.883,2.335
	c9.413-9.147,20.151-16.796,31.939-22.73c0.302-0.129,0.594-0.279,0.878-0.446c7.884-3.896,16.229-7.029,24.953-9.334
	c22.262-5.884,44.764-5.557,65.697-0.102C224.15,104.502,203.137,115.682,179.499,122.015z M318.433,436.647
	c1.438,11.542-0.89,23.183-6.807,33.432c-7.183,12.442-18.781,21.341-32.658,25.059c-13.877,3.719-28.371,1.811-40.813-5.373
	c-10.249-5.917-18.085-14.835-22.611-25.549L318.433,436.647z M201.468,237.568c1.992,0,4.005-0.221,6.009-0.683
	c7.459-1.717,13.735-6.269,17.671-12.817c3.938-6.55,5.018-14.223,3.04-21.603l-3.841-14.336c-1.864-6.957-9.042-11.1-15.999-9.237
	l-28.67,7.682c-3.371,0.903-6.188,3.065-7.932,6.087c-1.745,3.022-2.208,6.542-1.305,9.913l3.715,13.863
	C177.526,229.018,189.085,237.569,201.468,237.568z M210.36,193.885l3.339,12.465v0.001c0.915,3.413,0.415,6.962-1.407,9.991
	c-1.82,3.028-4.726,5.133-8.182,5.929c-6.68,1.54-13.621-2.818-15.468-9.713l-3.214-11.993L210.36,193.885z M129.658,226.793
	c0.643,0,1.296-0.084,1.946-0.257c4.001-1.072,6.375-5.185,5.303-9.186l-3.129-11.677c-1.072-4.001-5.183-6.372-9.186-5.303
	c-4.001,1.072-6.375,5.185-5.303,9.186l3.129,11.677C123.316,224.583,126.346,226.793,129.658,226.793z"/>
<g>
</g>
<g>
</g>
<g>
</g>
<g>
</g>
<g>
</g>
<g>
</g>
<g>
</g>
<g>
</g>
<g>
</g>
<g>
</g>
<g>
</g>
<g>
</g>
<g>
</g>
<g>
</g>
<g>
</g>
</svg>
