<svg xmlns="http://www.w3.org/2000/svg" width="134" height="60" viewBox="0 0 134 60">
  <defs>
    <style>
      .cls-1 {
        fill: none;
      }

      .cls-2, .cls-3 {
        fill: #bd1717;
      }

      .cls-2 {
        font-size: 30px;
        font-family: LobsterTwo-Bold, Lobster Two;
        font-weight: 700;
      }

      .cls-4 {
        fill: #f5abab;
      }
    </style>
  </defs>
  <g id="logo-link" transform="translate(-360 -19)">
    <rect id="bg" class="cls-1" width="134" height="60" transform="translate(360 19)"/>
    <text id="text" class="cls-2" transform="translate(420 60)"><tspan x="0" y="0">KXCH</tspan></text>
    <g id="icon" transform="translate(4)">
      <circle id="bg-2" data-name="bg" class="cls-3" cx="30" cy="30" r="30" transform="translate(356 19)"/>
      <g id="gift-box" transform="translate(368 31)">
        <path id="Path_2" data-name="Path 2" class="cls-4" d="M60.7,346a.7.7,0,1,0,.7.7A.7.7,0,0,0,60.7,346Zm0,0" transform="translate(-55.8 -321.784)"/>
        <path id="Path_3" data-name="Path 3" class="cls-4" d="M33.735,5.6H31.462C31.45,2.929,30.322,0,27.716,0A3.614,3.614,0,0,0,25.3.942l-.017.012L21.62,3.791a4.531,4.531,0,0,0-3-.992,4.617,4.617,0,0,0-2.88.894L11.907.73A3.466,3.466,0,0,0,9.766,0C7.149,0,6.033,2.95,6.021,5.6H2.1A2.1,2.1,0,0,0,0,7.7v5.6a.7.7,0,0,0,.7.7h.7V33.735a2.1,2.1,0,0,0,2.1,2.1H31.916a2.476,2.476,0,0,0,2.52-2.1V14h.7a.7.7,0,0,0,.7-.7V7.7a2.1,2.1,0,0,0-2.1-2.1Zm-7.6-3.536A2.315,2.315,0,0,1,27.716,1.4c1.885,0,2.466,2.949,2.324,4.846-.138,1.873-.869,3.277-1.818,3.5A2.331,2.331,0,0,1,26.288,9.3l-3.62-2.127c.016-.056.03-.113.043-.17h2.206a.7.7,0,1,0,0-1.4h-2.2a3.2,3.2,0,0,0-.24-.7Zm1.222,14.242-1.914-.513a.7.7,0,0,0-.857.495l-.55,2.054L19.676,9.7a4.043,4.043,0,0,0,2.117-1.054ZM15.518,8.721A4.111,4.111,0,0,0,17.56,9.7l-4.365,8.641-.55-2.054a.7.7,0,0,0-.857-.495L9.9,16.3Zm3.1,1.99,1.4,2.771V34.435h-2.8V13.483ZM21.39,6.3c0,1.051-.9,2.089-2.745,2.1H18.59c-1.893-.01-2.747-1.077-2.745-2.1,0-1.056.9-2.1,2.772-2.1s2.774,1.05,2.772,2.1ZM9.766,1.4a2.079,2.079,0,0,1,1.284.438l3.783,2.927a3.284,3.284,0,0,0-.31.835h-2.2a.7.7,0,1,0,0,1.4h2.2c.022.1.048.2.08.294L11.183,9.3l-.011.007h0a2.294,2.294,0,0,1-1.91.432c-.949-.217-1.68-1.622-1.819-3.5C7.3,4.35,7.881,1.4,9.766,1.4ZM1.4,7.7A.7.7,0,0,1,2.1,7H6.117c.317,2.222,1.371,3.771,2.832,4.106,1.793.41,2.742-.548,3.932-1.177L10.9,12.6H1.4ZM2.8,33.735V14H9.864L7.582,17.076a.7.7,0,0,0,.743,1.093l3.148-.843.843,3.148a.7.7,0,0,0,1.3.135l2.2-4.355V34.435H3.5a.7.7,0,0,1-.7-.7Zm30.236,0c0,.27-.611.7-1.12.7h-10.5V16.253l2.2,4.355a.7.7,0,0,0,1.3-.135l.843-3.148,3.148.844a.7.7,0,0,0,.747-1.088L27.414,14h5.621Zm1.4-21.137H26.4L24.345,9.777l1.217.715a3.653,3.653,0,0,0,2.973.614C30,10.77,31.05,9.22,31.366,7h2.369a.7.7,0,0,1,.7.7Zm0,0"/>
        <path id="Path_4" data-name="Path 4" class="cls-4" d="M60.7,386a.7.7,0,0,0-.7.7v4.619a.7.7,0,0,0,1.4,0V386.7A.7.7,0,0,0,60.7,386Zm0,0" transform="translate(-55.8 -358.984)"/>
      </g>
    </g>
  </g>
</svg>
