<svg xmlns="http://www.w3.org/2000/svg" xmlns:xlink="http://www.w3.org/1999/xlink" width="1600" height="1200" viewBox="0 0 1600 1200">
  <defs>
    <clipPath id="clip-path">
      <rect width="1600" height="1202" fill="none"/>
    </clipPath>
    <clipPath id="clip-path-2">
      <rect id="Background" width="1600" height="1200" transform="translate(5379 -1224)" fill="#fff"/>
    </clipPath>
    <clipPath id="clip-Mataura">
      <rect width="1600" height="1200"/>
    </clipPath>
  </defs>
  <g id="Mataura" clip-path="url(#clip-Mataura)">
    <rect width="1600" height="1200" fill="#cdfcf5"/>
    <g id="Component_12_1" data-name="Component 12 – 1" transform="translate(0 -2)" clip-path="url(#clip-path)">
      <rect id="Background-2" data-name="Background" width="1600" height="1200" transform="translate(0 2)" fill="#fff"/>
      <g id="Mask_Group_12" data-name="Mask Group 12" transform="translate(-5379 1224)" clip-path="url(#clip-path-2)">
        <g id="Mataura-2" data-name="Mataura" transform="translate(4892.721 -1812.313)">
          <rect id="Shape" width="1122.427" height="1182.651" transform="matrix(0.731, 0.682, -0.682, 0.731, 1204.034, 1310.504)" fill="#bd1717"/>
          <rect id="Shape-2" data-name="Shape" width="1447.111" height="1182.651" transform="matrix(0.731, 0.682, -0.682, 0.731, 1644.774, 180.349)" fill="#0dbda2"/>
          <path id="Shape-3" data-name="Shape" d="M806.56,1171.681a27.494,27.494,0,0,1,13.837-36.337A545.463,545.463,0,0,0,1035.04,962.6a27.493,27.493,0,0,1,33.079-8.823,139.25,139.25,0,0,0,124.92-248.439c-22.108-12.718-16.486-46.071,8.568-50.84,141.528-26.937,245.506-151.259,245.506-297.084,0-167.026-135.4-302.427-302.427-302.427A301.717,301.717,0,0,0,911.021,165.4a27.479,27.479,0,0,1-35.915,6.3,540.589,540.589,0,0,0-276.8-75.691c-300.071,0-543.322,243.256-543.322,543.339q0,10.706.413,21.358A27.494,27.494,0,1,1,.453,662.83Q0,651.114,0,639.349C0,308.9,267.869,41.022,598.309,41.022a595.753,595.753,0,0,1,285.3,72.281A356.5,356.5,0,0,1,1144.686,0C1342.08,0,1502.1,160.02,1502.1,357.414c0,153.2-97.094,286.3-236.211,336.355a193.885,193.885,0,0,1,52.049,132.342c0,107.253-86.946,194.2-194.2,194.2a194.171,194.171,0,0,1-57.139-8.554,600.281,600.281,0,0,1-223.7,173.756,27.473,27.473,0,0,1-36.337-13.836Z" transform="translate(0.178 206.419)" fill="#d0e215"/>
          <path id="Shape-4" data-name="Shape" d="M8.99,1047.368a26.184,26.184,0,1,1,34.389-39.494,542.333,542.333,0,0,0,357.513,133.757c300.792,0,544.631-243.84,544.631-544.631S701.684,52.369,400.892,52.369a542.146,542.146,0,0,0-248.134,59.674,26.185,26.185,0,0,1-23.894-46.6A594.532,594.532,0,0,1,400.893,0c329.714,0,597,267.286,597,597s-267.286,597-597,597A594.7,594.7,0,0,1,8.99,1047.368Z" transform="translate(1442.49 0)" fill="#f5abab"/>
          <rect id="Shape-5" data-name="Shape" width="1122.427" height="431.166" transform="matrix(0.731, 0.682, -0.682, 0.731, 1480.19, 1281.133)" fill="#ef7e7e"/>
          <circle id="Shape-6" data-name="Shape" cx="218.202" cy="218.202" r="218.202" transform="translate(314.825 1033.403)" fill="#3ef2d6"/>
          <circle id="Shape-7" data-name="Shape" cx="24.439" cy="24.439" r="24.439" transform="translate(807.96 1341.504)" fill="#0dbda2"/>
          <path id="Shape-8" data-name="Shape" d="M278.427,149.478a14.838,14.838,0,1,1,14.838,14.838A14.838,14.838,0,0,1,278.427,149.478Zm-131.794,0a14.838,14.838,0,1,1,14.838,14.838A14.838,14.838,0,0,1,146.632,149.478Zm-131.794,0a14.838,14.838,0,1,1,14.838,14.838A14.838,14.838,0,0,1,14.838,149.478Zm395.186-.072a14.838,14.838,0,1,1,14.838,14.838A14.838,14.838,0,0,1,410.024,149.407ZM0,39.5A29.676,29.676,0,1,1,29.676,69.18,29.676,29.676,0,0,1,0,39.5Zm252.175-9.667a29.676,29.676,0,1,1,29.676,29.676,29.676,29.676,0,0,1-29.676-29.676Zm-133.54,0a29.676,29.676,0,1,1,29.676,29.676,29.676,29.676,0,0,1-29.676-29.676Zm276.551-.161a29.676,29.676,0,1,1,29.676,29.676,29.676,29.676,0,0,1-29.676-29.676Z" transform="translate(1627.313 943.644) rotate(-45)" fill="#cdfcf5"/>
        </g>
      </g>
    </g>
  </g>
</svg>
