<?xml version="1.0" encoding="iso-8859-1"?>
<!-- Generator: Adobe Illustrator 19.0.0, SVG Export Plug-In . SVG Version: 6.00 Build 0)  -->
<svg version="1.1" id="Capa_1" xmlns="http://www.w3.org/2000/svg" xmlns:xlink="http://www.w3.org/1999/xlink" x="0px" y="0px"
	 viewBox="0 0 511.998 511.998" style="enable-background:new 0 0 511.998 511.998;" xml:space="preserve">
<path style="fill:#EEEDED;" d="M446.843,365.314h-95.069c-23.426,0-42.417-18.991-42.417-42.417v-92.014
	c0-23.426,18.991-42.417,42.417-42.417h95.069c12.91,0,20.888,14.08,14.252,25.155l-25.268,42.17
	c-7.783,12.99-7.783,29.209,0,42.199l25.268,42.17C467.731,351.234,459.754,365.314,446.843,365.314z"/>
<path style="opacity:0.1;enable-background:new    ;" d="M446.843,365.314h-95.069c-23.426,0-42.417-18.991-42.417-42.417v-92.014
	c0-23.426,18.991-42.417,42.417-42.417h95.069c12.91,0,20.888,14.08,14.252,25.155l-25.268,42.17
	c-7.783,12.99-7.783,29.209,0,42.199l25.268,42.17C467.731,351.234,459.754,365.314,446.843,365.314z"/>
<path style="fill:#EEEDED;" d="M333.878,308.885H120.4V132.036h213.477c23.426,0,42.417,18.991,42.417,42.417v92.014
	C376.295,289.894,357.304,308.885,333.878,308.885z"/>
<rect x="120.399" y="132.04" style="opacity:0.1;enable-background:new    ;" width="45.536" height="176.85"/>
<path style="fill:#EEEDED;" d="M135.255,95.184H80.953v399.087c0,5.649,4.58,10.229,10.229,10.229h33.844
	c5.649,0,10.229-4.58,10.229-10.229V95.184z"/>
<path style="fill:#E86478;" d="M80.953,481.468l54.302-54.302v-70.274l-54.302,54.302C80.953,411.194,80.953,481.468,80.953,481.468
	z M80.953,333.738l54.302-54.302v-70.274l-54.302,54.302C80.953,263.464,80.953,333.738,80.953,333.738z M101.502,95.184
	l-20.549,20.549v70.274l54.302-54.302V95.184H101.502z"/>
<path style="opacity:0.1;enable-background:new    ;" d="M80.953,95.184v41.284c8.415,3.297,17.567,5.127,27.151,5.127
	s18.735-1.83,27.151-5.127V95.184H80.953z"/>
<circle style="fill:#F8CA4F;" cx="108.109" cy="67.11" r="59.61"/>
<path style="opacity:0.1;enable-background:new    ;" d="M120.406,114.412c-32.92,0-59.607-26.687-59.607-59.607
	c0-13.322,4.373-25.622,11.758-35.547C57.956,30.123,48.496,47.509,48.496,67.107c0,32.92,26.687,59.607,59.608,59.607
	c19.598,0,36.985-9.46,47.849-24.061C146.028,110.039,133.729,114.412,120.406,114.412z"/>
<path style="fill:#E86478;" d="M276.837,181.865c-47.955,19.133-69.842,55.292-71.837,76.828h106.086
	c-16.084-19.66-28.891-37.098-26.482-71.102C284.9,183.404,280.735,180.31,276.837,181.865z"/>
<path style="opacity:0.05;enable-background:new    ;" d="M276.837,181.865c-47.955,19.133-69.842,55.292-71.837,76.828h12.709
	c1.706-18.415,17.986-47.506,52.644-67.516c3.288,3.748,8.1,6.127,13.478,6.127c0.169,0,0.332-0.021,0.5-0.025
	c-0.051-3.079,0.032-6.298,0.272-9.688C284.9,183.404,280.735,180.31,276.837,181.865z"/>
<g>
	<circle style="fill:#FFFFFF;" cx="288.689" cy="173.74" r="17.939"/>
	<path style="fill:#FFFFFF;" d="M310.108,285.118H205.977c-7.297,0-13.212-5.915-13.212-13.212l0,0
		c0-7.297,5.915-13.212,13.212-13.212h104.131c7.297,0,13.212,5.915,13.212,13.212l0,0
		C323.32,279.202,317.405,285.118,310.108,285.118z"/>
</g>
<path d="M315.186,251.849c-13.445-16.605-22.52-30.253-23.314-52.874c12.53-1.571,22.257-12.284,22.257-25.233
	c0-14.027-11.412-25.439-25.439-25.439s-25.439,11.412-25.439,25.439c0,1.945,0.227,3.836,0.642,5.657
	c-39.382,18.982-60.908,49.693-65.574,73.279c-7.638,3.053-13.055,10.512-13.055,19.227c0,11.421,9.292,20.713,20.712,20.713
	h104.131c11.42,0,20.712-9.292,20.712-20.713C330.82,262.239,324.155,254.123,315.186,251.849z M288.691,163.303
	c5.756,0,10.439,4.684,10.439,10.439c0,5.756-4.683,10.439-10.439,10.439c-0.786,0-1.549-0.095-2.286-0.26
	c-0.104-0.029-0.208-0.057-0.314-0.081c-4.5-1.16-7.839-5.242-7.839-10.098C278.252,167.986,282.935,163.303,288.691,163.303z
	 M310.108,277.618H205.977c-3.15,0-5.712-2.563-5.712-5.713c0-3.149,2.563-5.712,5.712-5.712h7.732c4.142,0,7.5-3.357,7.5-7.5
	c0-3.99-3.117-7.242-7.047-7.477c5.316-17.477,22.774-42.533,57.274-58.802c1.616,1.495,3.426,2.781,5.387,3.821
	c0.124,23.747,7.819,39.699,18.906,54.959h-47.92c-4.142,0-7.5,3.357-7.5,7.5c0,4.143,3.358,7.5,7.5,7.5h62.299
	c3.149,0,5.712,2.563,5.712,5.712C315.82,275.056,313.258,277.618,310.108,277.618z M442.261,294.136
	c-6.374-10.638-6.374-23.854,0-34.49l25.268-42.17c4.523-7.548,4.633-16.626,0.295-24.282c-4.338-7.656-12.181-12.228-20.981-12.228
	h-63.049v-6.513c0-27.524-22.393-49.917-49.917-49.917h-191.09c19.419-11.772,32.424-33.109,32.424-57.429
	C175.211,30.104,145.107,0,108.104,0S40.996,30.104,40.996,67.107c0,7.065,1.094,14.028,3.253,20.693
	c1.276,3.94,5.504,6.103,9.446,4.824c3.941-1.275,6.101-5.505,4.825-9.445c-1.674-5.171-2.524-10.578-2.524-16.072
	C55.996,38.375,79.372,15,108.104,15s52.107,23.375,52.107,52.107s-23.376,52.107-52.107,52.107c-8.234,0-16.184-1.897-23.391-5.53
	c-0.221-0.129-0.449-0.247-0.684-0.353c-2.289-1.197-4.503-2.565-6.621-4.112c-3.345-2.444-8.037-1.712-10.48,1.633
	c-2.443,3.346-1.712,8.038,1.633,10.48c1.59,1.161,3.224,2.24,4.892,3.248v369.69c0,9.775,7.953,17.728,17.729,17.728h33.844
	c9.776,0,17.729-7.953,17.729-17.728V316.385h159.103v6.513c0,27.524,22.393,49.917,49.917,49.917h95.069
	c8.8,0,16.643-4.571,20.981-12.228c4.338-7.656,4.228-16.733-0.295-24.281L442.261,294.136z M88.453,131.289
	c6.303,1.926,12.902,2.926,19.651,2.926c5.504,0,10.849-0.68,15.971-1.936l-35.622,35.622V131.289z M127.755,494.272
	c0,1.505-1.224,2.728-2.729,2.728H91.182c-1.505,0-2.729-1.224-2.729-2.728v-9.697l39.302-39.302V494.272z M127.755,424.059
	l-39.302,39.302V414.3l39.302-39.301V424.059z M127.755,353.786l-39.302,39.301v-56.241l39.302-39.302V353.786z M127.755,276.33
	l-39.302,39.302v-49.06l39.302-39.302V276.33z M127.755,206.055l-39.302,39.302v-56.242l39.302-39.302V206.055z M454.774,353.193
	c-0.787,1.389-3.136,4.621-7.93,4.621h-95.069c-19.253,0-34.917-15.664-34.917-34.917v-6.513h6.463c4.142,0,7.5-3.357,7.5-7.5
	s-3.358-7.5-7.5-7.5H142.755V139.536h191.123c19.253,0,34.917,15.664,34.917,34.917v92.014c0,11.618-5.757,22.444-15.4,28.959
	c-3.432,2.319-4.335,6.981-2.016,10.414c1.449,2.145,3.813,3.302,6.221,3.302c1.444,0,2.905-0.417,4.192-1.286
	c13.777-9.309,22.002-24.781,22.002-41.389v-70.501h63.049c4.794,0,7.143,3.232,7.93,4.622s2.353,5.065-0.112,9.179l-25.268,42.17
	c-9.223,15.392-9.223,34.516,0,49.908l25.268,42.17C457.126,348.128,455.561,351.804,454.774,353.193z"/>
<g>
</g>
<g>
</g>
<g>
</g>
<g>
</g>
<g>
</g>
<g>
</g>
<g>
</g>
<g>
</g>
<g>
</g>
<g>
</g>
<g>
</g>
<g>
</g>
<g>
</g>
<g>
</g>
<g>
</g>
</svg>
