<?xml version="1.0" encoding="iso-8859-1"?>
<!-- Generator: Adobe Illustrator 19.0.0, SVG Export Plug-In . SVG Version: 6.00 Build 0)  -->
<svg version="1.1" id="Capa_1" xmlns="http://www.w3.org/2000/svg" xmlns:xlink="http://www.w3.org/1999/xlink" x="0px" y="0px"
	 viewBox="0 0 512.003 512.003" style="enable-background:new 0 0 512.003 512.003;" xml:space="preserve">
<g transform="matrix(-0.5 -0.866 0.866 -0.5 69.48 648.91)">
	<rect x="181.81" y="278.221" style="fill:#E86478;" width="80.52" height="52.36"/>
	<rect x="181.81" y="278.221" style="opacity:0.2;enable-background:new    ;" width="80.52" height="52.36"/>
</g>
<path style="fill:#E86478;" d="M239.13,281.593c14.363,24.878,5.604,56.761-19.61,70.762c-24.683,13.706-55.87,4.438-69.987-20.012
	L34.888,133.771c-4.337-7.511-1.763-17.115,5.748-21.452l113.09-65.293c7.511-4.337,17.115-1.763,21.452,5.748L290.247,252.08
	L239.13,281.593z"/>
<path style="opacity:0.1;enable-background:new    ;" d="M239.13,281.593c14.363,24.878,5.604,56.761-19.61,70.762
	c-24.683,13.706-55.87,4.438-69.987-20.012L34.888,133.771c-4.337-7.511-1.763-17.115,5.748-21.452l113.09-65.293
	c7.511-4.337,17.115-1.763,21.452,5.748L290.247,252.08L239.13,281.593z"/>
<g>
	<path style="fill:#FFFFFF;" d="M189.407,216.716c-0.643,0-1.296-0.083-1.946-0.258c-4.001-1.072-6.375-5.184-5.303-9.186
		l10.757-40.145c1.072-4.001,5.182-6.379,9.186-5.303c4.001,1.072,6.375,5.185,5.303,9.186l-10.757,40.145
		C195.749,214.506,192.719,216.716,189.407,216.716z"/>
	<path style="fill:#FFFFFF;" d="M214.858,202.021c-0.643,0-1.296-0.083-1.946-0.258l-40.146-10.756
		c-4.001-1.071-6.375-5.184-5.303-9.186c1.071-4.001,5.184-6.378,9.186-5.303l40.145,10.756c4.001,1.071,6.375,5.184,5.303,9.186
		C221.2,199.811,218.17,202.021,214.858,202.021z"/>
	<path style="fill:#FFFFFF;" d="M167.6,298.102c-0.643,0-1.296-0.083-1.946-0.258c-4.001-1.072-6.375-5.185-5.303-9.186
		l10.757-40.144c1.072-4.001,5.182-6.379,9.186-5.303c4.001,1.072,6.375,5.185,5.303,9.186l-10.757,40.145
		C173.941,295.892,170.911,298.102,167.6,298.102z"/>
	<path style="fill:#FFFFFF;" d="M193.051,283.409c-0.642,0-1.296-0.083-1.946-0.258l-40.146-10.757
		c-4.001-1.071-6.375-5.185-5.303-9.186c1.071-4.001,5.184-6.378,9.185-5.303l40.146,10.757c4.001,1.071,6.375,5.185,5.303,9.186
		C199.392,281.199,196.362,283.409,193.051,283.409z"/>
</g>
<g>
	
		<rect x="131.762" y="71.549" transform="matrix(-0.5 -0.866 0.866 -0.5 76.7891 349.4187)" style="fill:#EEEDED;" width="15" height="161.986"/>
	
		<rect x="111.837" y="37.044" transform="matrix(-0.5 -0.866 0.866 -0.5 76.7849 280.4049)" style="fill:#EEEDED;" width="15" height="161.986"/>
</g>
<path style="fill:#E86478;" d="M475.014,397.577l-113.09,65.293c-7.511,4.336-17.116,1.763-21.452-5.748L219.184,247.045
	c-10.31-17.857-4.192-40.69,13.665-51l75.625-43.662c17.857-10.31,40.69-4.191,51,13.665l121.288,210.076
	C485.099,383.636,482.525,393.241,475.014,397.577z"/>
<g>
	
		<rect x="368.905" y="276.343" transform="matrix(-0.5 -0.866 0.866 -0.5 255.1516 861.9814)" style="fill:#EEEDED;" width="15" height="161.986"/>
	
		<rect x="388.834" y="310.857" transform="matrix(-0.5 -0.866 0.866 -0.5 255.1558 931.0125)" style="fill:#EEEDED;" width="15" height="161.986"/>
</g>
<g>
	<path style="fill:#FFFFFF;" d="M331.399,272.686c-0.643,0-1.296-0.083-1.946-0.258c-4.001-1.071-6.375-5.184-5.303-9.185
		l7.624-28.454c1.072-4.001,5.185-6.379,9.186-5.303c4.001,1.071,6.375,5.185,5.303,9.186l-7.624,28.454
		C337.741,270.476,334.711,272.686,331.399,272.686z"/>
	<path style="fill:#FFFFFF;" d="M319.084,279.797c-0.642,0-1.296-0.083-1.946-0.258l-28.455-7.624
		c-4.001-1.071-6.375-5.185-5.303-9.186c1.071-4.001,5.184-6.379,9.186-5.303l28.455,7.624c4.001,1.071,6.375,5.185,5.303,9.186
		C325.426,277.587,322.396,279.797,319.084,279.797z"/>
	<path style="fill:#FFFFFF;" d="M318.569,320.567c-0.643,0-1.296-0.083-1.946-0.258c-4.001-1.072-6.375-5.185-5.303-9.186
		l7.625-28.455c1.072-4.001,5.185-6.38,9.186-5.303c4.001,1.072,6.375,5.185,5.303,9.186l-7.625,28.455
		C324.911,318.357,321.881,320.567,318.569,320.567z"/>
	<path style="fill:#FFFFFF;" d="M366.964,292.627c-0.643,0-1.296-0.083-1.946-0.258l-28.454-7.625
		c-4.001-1.072-6.375-5.185-5.303-9.186c1.071-4.001,5.185-6.379,9.185-5.303l28.454,7.625c4.001,1.072,6.375,5.185,5.303,9.186
		C373.306,290.417,370.275,292.627,366.964,292.627z"/>
	<path style="fill:#FFFFFF;" d="M328.821,292.45c-6.072,0-11.984-3.148-15.233-8.773c-2.345-4.063-2.967-8.793-1.754-13.322
		c1.214-4.53,4.119-8.316,8.18-10.66c4.061-2.346,8.793-2.967,13.322-1.754c4.529,1.214,8.315,4.119,10.659,8.18
		c2.345,4.061,2.968,8.792,1.754,13.321c-1.214,4.529-4.118,8.315-8.179,10.66c-0.001,0-0.001,0-0.001,0
		C334.812,291.693,331.797,292.45,328.821,292.45z M333.819,283.606h0.01H333.819z M328.784,272.342
		c-0.368,0-0.813,0.079-1.27,0.343c-0.799,0.461-1.089,1.17-1.191,1.552c-0.103,0.382-0.205,1.142,0.255,1.939
		c0.705,1.22,2.272,1.64,3.491,0.936c1.221-0.705,1.64-2.271,0.935-3.49c-0.461-0.799-1.17-1.09-1.552-1.192
		C329.29,272.386,329.058,272.342,328.784,272.342z"/>
	<path style="fill:#FFFFFF;" d="M337.507,277.371c-2.592,0-5.113-1.345-6.502-3.751c-2.071-3.587-0.842-8.174,2.745-10.245
		l25.349-14.635c3.586-2.069,8.175-0.843,10.245,2.745c2.071,3.587,0.842,8.174-2.745,10.245l-25.349,14.635
		C340.069,277.047,338.779,277.371,337.507,277.371z"/>
	<path style="fill:#FFFFFF;" d="M376.399,266.367c-0.643,0-1.296-0.083-1.946-0.258l-13.546-3.63
		c-4.001-1.072-6.375-5.184-5.303-9.185l3.629-13.546c1.071-4.002,5.188-6.378,9.185-5.304c4.001,1.071,6.376,5.184,5.304,9.185
		l-1.688,6.302l6.302,1.689c4.001,1.072,6.375,5.185,5.303,9.186C382.741,264.157,379.711,266.367,376.399,266.367z"/>
	<path style="fill:#FFFFFF;" d="M323.771,273.69c-2.592,0-5.113-1.345-6.502-3.751l-14.635-25.349
		c-2.071-3.587-0.842-8.174,2.745-10.245c3.586-2.07,8.175-0.843,10.245,2.745l14.635,25.349c2.071,3.587,0.842,8.174-2.745,10.245
		C326.333,273.366,325.043,273.69,323.771,273.69z"/>
	<path style="fill:#FFFFFF;" d="M309.134,248.343c-0.642,0-1.295-0.083-1.945-0.258l-13.546-3.629
		c-4.001-1.071-6.376-5.184-5.304-9.185c1.071-4.002,5.188-6.381,9.185-5.304l6.302,1.688l1.689-6.302
		c1.071-4.001,5.185-6.378,9.186-5.303c4.001,1.072,6.375,5.185,5.303,9.186l-3.63,13.546
		C315.475,246.133,312.444,248.343,309.134,248.343z"/>
	<path style="fill:#FFFFFF;" d="M294.742,302.061c-2.592,0-5.112-1.345-6.502-3.751c-2.071-3.587-0.842-8.174,2.745-10.245
		l25.348-14.635c3.585-2.069,8.173-0.843,10.245,2.745c2.071,3.587,0.842,8.174-2.745,10.245l-25.348,14.635
		C297.305,301.737,296.015,302.061,294.742,302.061z"/>
	<path style="fill:#FFFFFF;" d="M291.11,315.608c-0.643,0-1.296-0.083-1.946-0.258c-4.001-1.072-6.375-5.185-5.303-9.185
		l1.689-6.302l-6.302-1.688c-4.001-1.072-6.375-5.185-5.303-9.186c1.071-4.001,5.184-6.378,9.186-5.303l13.546,3.63
		c4.001,1.072,6.375,5.185,5.303,9.186l-3.63,13.546C297.452,313.398,294.422,315.608,291.11,315.608z"/>
	<path style="fill:#FFFFFF;" d="M348.461,316.455c-2.592,0-5.112-1.345-6.502-3.751l-14.635-25.348
		c-2.071-3.587-0.842-8.174,2.745-10.245c3.586-2.069,8.173-0.843,10.245,2.745l14.635,25.348c2.071,3.587,0.842,8.174-2.745,10.245
		C351.023,316.131,349.733,316.455,348.461,316.455z"/>
	<path style="fill:#FFFFFF;" d="M344.829,330.002c-0.643,0-1.296-0.083-1.946-0.258c-4.001-1.072-6.375-5.185-5.303-9.186
		l3.63-13.546c1.071-4.001,5.184-6.377,9.186-5.303l13.546,3.63c4.001,1.072,6.375,5.184,5.303,9.185
		c-1.071,4.001-5.183,6.38-9.186,5.303l-6.302-1.688l-1.689,6.302C351.171,327.792,348.141,330.002,344.829,330.002z"/>
</g>
<path d="M495.436,452.966l-25.34-43.889l8.668-5.004c11.08-6.397,14.89-20.615,8.493-31.697l-46.098-79.842
	c-2.072-3.588-6.659-4.815-10.245-2.745c-3.587,2.071-4.816,6.658-2.745,10.245l46.098,79.841c2.262,3.919,0.915,8.946-3.003,11.208
	l-15.155,8.75c-0.003,0.001-0.005,0.002-0.008,0.004c-0.002,0.001-0.005,0.003-0.007,0.005l-41.371,23.886l-0.004,0.002
	c-0.001,0.001-0.003,0.002-0.004,0.003l-41.378,23.889h-0.001l-0.001,0.001l-15.161,8.753c-3.92,2.264-8.945,0.914-11.207-3.003
	l-75.596-130.938c-0.002-0.004-0.004-0.008-0.006-0.012s-0.005-0.007-0.007-0.011l-25.719-44.547
	c-0.004-0.007-0.008-0.015-0.012-0.022c-0.002-0.004-0.005-0.007-0.007-0.01l-19.94-34.537c-8.225-14.247-3.326-32.529,10.92-40.755
	l75.625-43.662c6.902-3.985,14.943-5.042,22.639-2.98c7.698,2.063,14.132,6.999,18.116,13.9L409.676,268
	c2.07,3.588,6.659,4.815,10.245,2.745c3.587-2.071,4.816-6.658,2.745-10.245l-56.696-98.201
	c-5.988-10.371-15.656-17.79-27.224-20.89c-11.569-3.098-23.649-1.509-34.021,4.479l-50.346,29.067L181.673,49.024
	c-3.099-5.367-8.102-9.207-14.089-10.81c-5.987-1.604-12.238-0.781-17.607,2.317l-12.314,7.109l-25.34-43.889
	c-2.072-3.587-6.659-4.815-10.245-2.745c-3.587,2.071-4.816,6.658-2.745,10.245l25.34,43.889L96.28,71.533L70.94,27.644
	c-2.072-3.588-6.659-4.816-10.245-2.745c-3.587,2.071-4.816,6.658-2.745,10.245l25.34,43.889L54.897,95.425l-25.34-43.889
	c-2.072-3.588-6.659-4.816-10.245-2.745c-3.587,2.071-4.816,6.658-2.745,10.245l25.34,43.889l-5.021,2.899
	c-11.08,6.397-14.89,20.617-8.493,31.697l77.205,133.724c1.389,2.406,3.91,3.751,6.502,3.751c1.272,0,2.563-0.324,3.743-1.006
	c3.587-2.071,4.816-6.658,2.745-10.245L41.383,130.021c-2.262-3.917-0.914-8.945,3.003-11.207l11.509-6.645
	c0.002-0.001,0.005-0.002,0.008-0.004s0.006-0.004,0.01-0.006l41.368-23.884c0.002-0.001,0.004-0.002,0.005-0.003
	c0.002-0.001,0.004-0.003,0.007-0.004l41.373-23.887c0.001-0.001,0.002-0.001,0.003-0.001c0.001-0.001,0.002-0.001,0.003-0.002
	l18.805-10.857c1.898-1.095,4.112-1.387,6.225-0.819c2.117,0.567,3.886,1.925,4.982,3.822l72.706,125.931l-12.289,7.095
	c-21.409,12.36-28.771,39.835-16.41,61.245l19.958,34.569c5.933,10.29,7.456,22.26,4.285,33.71
	c-3.156,11.397-10.577,20.847-20.9,26.633l-0.183,0.106c-20.837,11.551-47.667,3.831-59.821-17.221l-19.249-33.341
	c-2.07-3.587-6.659-4.815-10.245-2.745c-3.587,2.071-4.816,6.658-2.745,10.245l19.249,33.341
	c11.088,19.206,31.383,30.067,52.044,30.067c9.573,0,19.227-2.333,28.078-7.248c0.027-0.015,0.053-0.032,0.08-0.047
	c0.009-0.005,0.02-0.009,0.029-0.014l38.854-22.432l71.853,124.454c4.294,7.435,12.109,11.597,20.135,11.597
	c3.934,0,7.918-0.999,11.563-3.103l8.667-5.004l25.34,43.89c1.39,2.406,3.91,3.751,6.502,3.751c1.272,0,2.563-0.324,3.743-1.006
	c3.587-2.071,4.816-6.658,2.745-10.245l-25.34-43.89l28.393-16.392l25.34,43.889c1.39,2.406,3.91,3.751,6.502,3.751
	c1.272,0,2.563-0.324,3.743-1.006c3.587-2.071,4.816-6.658,2.745-10.245l-25.34-43.889l28.393-16.392l25.34,43.889
	c1.39,2.406,3.91,3.751,6.502,3.751c1.272,0,2.563-0.324,3.743-1.006C496.278,461.139,497.508,456.553,495.436,452.966z
	 M250.572,325.767c0.291-0.887,0.565-1.783,0.816-2.689c0.342-1.234,0.628-2.473,0.888-3.714l2.347,4.064L250.572,325.767z"/>
<g>
</g>
<g>
</g>
<g>
</g>
<g>
</g>
<g>
</g>
<g>
</g>
<g>
</g>
<g>
</g>
<g>
</g>
<g>
</g>
<g>
</g>
<g>
</g>
<g>
</g>
<g>
</g>
<g>
</g>
</svg>
